<svg id="Слой_1" data-name="Слой 1" xmlns="http://www.w3.org/2000/svg" viewBox="0 0 100 60"><defs><style>.cls-1{fill:#4fbe90;}.cls-2{fill:#fff;opacity:0.5;}.cls-3{fill:#009f86;}.cls-4{fill:#007f72;}.cls-5{fill:#4fd690;}</style></defs><path class="cls-1" d="M96.91,4.65H14.32a2,2,0,0,0-2,2V53.46a2,2,0,0,0,2,2h8.29v2.58a.64.64,0,0,0,.64.65H88a.65.65,0,0,0,.64-.65V55.48h8.29a2,2,0,0,0,2-2V6.67A2,2,0,0,0,96.91,4.65Z"/><path class="cls-2" d="M13.64,7.8V52.33a2,2,0,0,0,2,1.93h80a1.94,1.94,0,0,0,2-1.93l-82-46.46A2,2,0,0,0,13.64,7.8Z"/><path class="cls-1" d="M1.71,1.29a.65.65,0,0,0-.65.65V3.87a.65.65,0,0,0,.65.65H8.12v3.4H7.33a.28.28,0,0,0-.28.28V9.6a.28.28,0,0,0,.28.28h.79v.89H5.54a.64.64,0,0,0-.64.64v11a.64.64,0,0,0,.64.64H8.12V24H7.33a.29.29,0,0,0-.28.28v1.4a.28.28,0,0,0,.28.28h.79v7H7.33a.29.29,0,0,0-.28.28v1.41a.28.28,0,0,0,.28.27h.79v.89H5.54a.64.64,0,0,0-.64.64v11a.64.64,0,0,0,.64.64H8.12V49H7.33a.28.28,0,0,0-.28.27v1.41a.29.29,0,0,0,.28.28h.79v6.52a.65.65,0,0,0,.64.65h2.58V1.29H1.71Z"/><circle class="cls-3" cx="36.93" cy="29.59" r="16.42" transform="translate(-10.28 26.38) rotate(-34.82)"/><path class="cls-4" d="M26,19.52a14.61,14.61,0,0,0,.31,20.66A14.62,14.62,0,0,0,47,40.5C52.62,34.88,31.63,13.9,26,19.52Z"/><path class="cls-5" d="M45.5,19.64c-2,1.19-.49,6.68-3.6,8.68l0,.13a4.83,4.83,0,0,0-1-1.95l.2.1c5.7-9.41-5.08-12.5-10.81-7.93.53,2.27,6.22,2.53,7.15,6.1l.12.06h-.32a4.9,4.9,0,0,0-1.84.36l.15-.15c-7.18-8.34-13.45,1-10.87,7.82,2.31.21,4.32-5.12,8-4.91l.09-.09a4.78,4.78,0,0,0-.34,1.78c0,.13,0,.26,0,.38l-.11-.2c-10.14,4.26-3.24,13.1,4.08,12.77.91-2.14-3.53-5.7-2.19-9.14l-.06-.1a4.82,4.82,0,0,0,2,1l-.23,0c.92,11,11.46,7.13,13.4.06-1.75-1.53-6.51,1.61-9.36-.74l-.13,0a4.81,4.81,0,0,0,1.54-1.57l0,.23C52,34.88,51.61,23.67,45.5,19.64ZM36.93,32a2.39,2.39,0,1,1,2.39-2.39A2.39,2.39,0,0,1,36.93,32Z"/><circle class="cls-3" cx="74.3" cy="29.59" r="16.42" transform="translate(37.64 100.66) rotate(-84.43)"/><path class="cls-4" d="M63.39,19.52a14.61,14.61,0,0,0,.32,20.66,14.61,14.61,0,0,0,20.66.32C90,34.88,69,13.9,63.39,19.52Z"/><path class="cls-5" d="M82.87,19.64c-2,1.19-.48,6.68-3.59,8.68l0,.13a4.85,4.85,0,0,0-1-1.95l.2.1c5.71-9.41-5.07-12.5-10.8-7.93.52,2.27,6.21,2.53,7.14,6.1l.12.06H74.6a4.87,4.87,0,0,0-1.84.36l.15-.15C65.72,16.69,59.45,26,62,32.85c2.32.21,4.32-5.12,8-4.91l.09-.09a4.78,4.78,0,0,0-.35,1.78c0,.13,0,.26,0,.38l-.1-.2c-10.15,4.26-3.24,13.1,4.08,12.77.91-2.14-3.54-5.7-2.2-9.14l0-.1a4.78,4.78,0,0,0,2,1l-.22,0c.91,11,11.45,7.13,13.4.06-1.76-1.53-6.51,1.61-9.37-.74l-.12,0a4.78,4.78,0,0,0,1.53-1.57l0,.23C89.38,34.88,89,23.67,82.87,19.64ZM74.3,32a2.39,2.39,0,1,1,2.39-2.39A2.39,2.39,0,0,1,74.3,32Z"/><path class="cls-3" d="M22.61,58.06a.64.64,0,0,0,.64.65H88a.65.65,0,0,0,.64-.65V55.48h-66Z"/><path class="cls-5" d="M7.05,24.24v1.4a.28.28,0,0,0,.28.28h.79V24H7.33A.29.29,0,0,0,7.05,24.24Z"/><path class="cls-5" d="M7.05,8.2V9.6a.28.28,0,0,0,.28.28h.79v-2H7.33A.28.28,0,0,0,7.05,8.2Z"/><path class="cls-5" d="M4.9,11.41v11a.64.64,0,0,0,.64.64H8.12V10.77H5.54A.64.64,0,0,0,4.9,11.41Z"/><path class="cls-4" d="M7.36,24.44v1a.2.2,0,0,0,.2.2h.56v-1.4H7.56A.2.2,0,0,0,7.36,24.44Z"/><path class="cls-4" d="M7.36,8.4v1a.2.2,0,0,0,.2.2h.56V8.2H7.56A.2.2,0,0,0,7.36,8.4Z"/><path class="cls-4" d="M5.82,13v7.88a.46.46,0,0,0,.46.46H8.12v-8.8H6.28A.46.46,0,0,0,5.82,13Z"/><path class="cls-5" d="M7.05,49.24v1.41a.29.29,0,0,0,.28.28h.79V49H7.33A.28.28,0,0,0,7.05,49.24Z"/><path class="cls-5" d="M7.05,33.2v1.41a.28.28,0,0,0,.28.27h.79v-2H7.33A.29.29,0,0,0,7.05,33.2Z"/><path class="cls-5" d="M4.9,36.41v11a.64.64,0,0,0,.64.64H8.12V35.77H5.54A.64.64,0,0,0,4.9,36.41Z"/><path class="cls-4" d="M7.36,49.44v1a.2.2,0,0,0,.2.2h.56V49.24H7.56A.2.2,0,0,0,7.36,49.44Z"/><path class="cls-4" d="M7.36,33.4v1a.19.19,0,0,0,.2.19h.56V33.2H7.56A.2.2,0,0,0,7.36,33.4Z"/><path class="cls-4" d="M5.82,38v7.87a.45.45,0,0,0,.46.46H8.12V37.53H6.28A.45.45,0,0,0,5.82,38Z"/><path class="cls-4" d="M62.89,57a.34.34,0,0,0,.34.34h24a.34.34,0,0,0,.34-.34V55.48H62.89Z"/><path class="cls-4" d="M23.71,57a.34.34,0,0,0,.34.34h36.4a.34.34,0,0,0,.34-.34V55.48H23.71Z"/></svg>